<svg xmlns="http://www.w3.org/2000/svg" xmlns:xlink="http://www.w3.org/1999/xlink" width="279" zoomAndPan="magnify" viewBox="0 0 209.25 96.75" height="129" preserveAspectRatio="xMidYMid meet" version="1.0"><defs><g/><clipPath id="id1"><path d="M 166 26 L 207.738281 26 L 207.738281 71 L 166 71 Z M 166 26 " clip-rule="nonzero"/></clipPath><clipPath id="id2"><path d="M 106.101562 26 L 147 26 L 147 71 L 106.101562 71 Z M 106.101562 26 " clip-rule="nonzero"/></clipPath><clipPath id="id3"><path d="M 193 9.6875 L 196 9.6875 L 196 13 L 193 13 Z M 193 9.6875 " clip-rule="nonzero"/></clipPath><clipPath id="id4"><path d="M 118 84 L 121 84 L 121 86.664062 L 118 86.664062 Z M 118 84 " clip-rule="nonzero"/></clipPath></defs><g fill="rgb(19.60907%, 21.179199%, 22.749329%)" fill-opacity="1"><g transform="translate(1.01984, 39.66992)"><g><path d="M 12.582031 -22.195312 C 5.832031 -22.195312 1.640625 -17.78125 1.640625 -10.878906 C 1.640625 -4.003906 5.832031 0.441406 12.582031 0.441406 C 19.296875 0.441406 23.488281 -4.003906 23.488281 -10.878906 C 23.488281 -17.78125 19.296875 -22.195312 12.582031 -22.195312 Z M 12.582031 -3.214844 C 8.953125 -3.214844 6.746094 -6.023438 6.746094 -10.878906 C 6.746094 -15.765625 8.953125 -18.539062 12.582031 -18.539062 C 16.175781 -18.539062 18.382812 -15.765625 18.382812 -10.878906 C 18.382812 -6.023438 16.175781 -3.214844 12.582031 -3.214844 Z M 12.582031 -3.214844 "/></g></g></g><g fill="rgb(19.60907%, 21.179199%, 22.749329%)" fill-opacity="1"><g transform="translate(23.877059, 39.66992)"><g><path d="M 27.746094 -13.054688 C 27.367188 -15.355469 25.507812 -17.246094 22.226562 -17.246094 C 20.714844 -17.246094 19.613281 -16.929688 18.632812 -16.269531 L 16.929688 -14 C 16.238281 -15.859375 14.503906 -17.246094 11.699219 -17.246094 C 10.152344 -17.246094 9.082031 -16.929688 8.070312 -16.269531 L 6.808594 -14.1875 L 6.808594 -16.804688 L 1.859375 -16.804688 L 1.859375 0 L 6.808594 0 L 6.808594 -8.734375 C 6.808594 -12.171875 7.726562 -13.839844 9.617188 -13.839844 C 11.222656 -13.839844 12.074219 -12.894531 12.296875 -11.222656 C 12.390625 -10.375 12.421875 -9.457031 12.421875 -8.671875 L 12.421875 0 L 17.339844 0 L 17.339844 -8.734375 C 17.339844 -12.171875 18.285156 -13.839844 20.179688 -13.839844 C 21.753906 -13.839844 22.636719 -12.894531 22.828125 -11.222656 C 22.921875 -10.375 22.953125 -9.457031 22.953125 -8.671875 L 22.953125 0 L 27.902344 0 L 27.902344 -9.933594 C 27.902344 -11.289062 27.871094 -12.203125 27.746094 -13.054688 Z M 27.746094 -13.054688 "/></g></g></g><g fill="rgb(19.60907%, 21.179199%, 22.749329%)" fill-opacity="1"><g transform="translate(51.873263, 39.66992)"><g><path d="M 11.664062 0 L 16.488281 0 C 16.238281 -1.859375 16.175781 -2.996094 16.175781 -4.257812 L 16.175781 -9.363281 C 16.175781 -10.339844 16.144531 -11.289062 16.078125 -12.074219 C 15.828125 -15.070312 14.03125 -17.246094 9.050781 -17.246094 C 4.949219 -17.246094 1.703125 -15.070312 1.609375 -11.222656 L 6.335938 -11.222656 C 6.464844 -12.894531 7.316406 -13.839844 8.859375 -13.839844 C 10.339844 -13.839844 11.097656 -13.023438 11.191406 -12.011719 C 11.257812 -11.445312 11.257812 -11.003906 11.257812 -10.5625 L 11.257812 -10.277344 L 10.183594 -10.277344 C 4.257812 -10.277344 1.007812 -8.132812 1.007812 -4.476562 C 1.007812 -1.292969 3.5625 0.441406 6.402344 0.441406 C 7.945312 0.441406 9.363281 0.09375 10.5625 -0.664062 L 11.320312 -2.460938 Z M 8.355469 -2.964844 C 7 -2.964844 6.085938 -3.625 6.085938 -4.886719 C 6.085938 -6.84375 8.199219 -7.597656 11.257812 -7.347656 L 11.257812 -6.117188 C 11.257812 -4.035156 9.835938 -2.964844 8.355469 -2.964844 Z M 8.355469 -2.964844 "/></g></g></g><g fill="rgb(19.60907%, 21.179199%, 22.749329%)" fill-opacity="1"><g transform="translate(68.361908, 39.66992)"><g><path d="M 11.128906 -17.246094 C 10.152344 -17.246094 8.921875 -16.804688 8.070312 -15.921875 L 6.808594 -13.589844 L 6.808594 -16.804688 L 1.859375 -16.804688 L 1.859375 0 L 6.808594 0 L 6.808594 -7.03125 C 6.808594 -11.792969 8.480469 -13.367188 12.390625 -13.117188 L 12.390625 -17.121094 C 12.011719 -17.183594 11.664062 -17.246094 11.128906 -17.246094 Z M 11.128906 -17.246094 "/></g></g></g><g fill="rgb(19.60907%, 21.179199%, 22.749329%)" fill-opacity="1"><g transform="translate(1.01984, 68.068133)"><g><path d="M 26.769531 -21.753906 L 19.203125 -21.753906 L 14.820312 -4.699219 L 10.4375 -21.753906 L 2.679688 -21.753906 L 2.679688 0 L 7.628906 0 L 7.628906 -9.648438 C 7.628906 -11.761719 7.628906 -14.597656 7.566406 -16.835938 C 7.976562 -14.597656 8.703125 -11.761719 9.300781 -9.679688 L 12.105469 0 L 17.339844 0 L 20.085938 -9.679688 C 20.714844 -11.761719 21.441406 -14.628906 21.882812 -16.867188 C 21.820312 -14.628906 21.820312 -11.761719 21.820312 -9.648438 L 21.820312 0 L 26.769531 0 Z M 26.769531 -21.753906 "/></g></g></g><g fill="rgb(19.60907%, 21.179199%, 22.749329%)" fill-opacity="1"><g transform="translate(28.101745, 68.068133)"><g><path d="M 11.664062 0 L 16.488281 0 C 16.238281 -1.859375 16.175781 -2.996094 16.175781 -4.257812 L 16.175781 -9.363281 C 16.175781 -10.339844 16.144531 -11.289062 16.078125 -12.074219 C 15.828125 -15.070312 14.03125 -17.246094 9.050781 -17.246094 C 4.949219 -17.246094 1.703125 -15.070312 1.609375 -11.222656 L 6.335938 -11.222656 C 6.464844 -12.894531 7.316406 -13.839844 8.859375 -13.839844 C 10.339844 -13.839844 11.097656 -13.023438 11.191406 -12.011719 C 11.257812 -11.445312 11.257812 -11.003906 11.257812 -10.5625 L 11.257812 -10.277344 L 10.183594 -10.277344 C 4.257812 -10.277344 1.007812 -8.132812 1.007812 -4.476562 C 1.007812 -1.292969 3.5625 0.441406 6.402344 0.441406 C 7.945312 0.441406 9.363281 0.09375 10.5625 -0.664062 L 11.320312 -2.460938 Z M 8.355469 -2.964844 C 7 -2.964844 6.085938 -3.625 6.085938 -4.886719 C 6.085938 -6.84375 8.199219 -7.597656 11.257812 -7.347656 L 11.257812 -6.117188 C 11.257812 -4.035156 9.835938 -2.964844 8.355469 -2.964844 Z M 8.355469 -2.964844 "/></g></g></g><g fill="rgb(19.60907%, 21.179199%, 22.749329%)" fill-opacity="1"><g transform="translate(44.590391, 68.068133)"><g><path d="M 11.128906 -17.246094 C 10.152344 -17.246094 8.921875 -16.804688 8.070312 -15.921875 L 6.808594 -13.589844 L 6.808594 -16.804688 L 1.859375 -16.804688 L 1.859375 0 L 6.808594 0 L 6.808594 -7.03125 C 6.808594 -11.792969 8.480469 -13.367188 12.390625 -13.117188 L 12.390625 -17.121094 C 12.011719 -17.183594 11.664062 -17.246094 11.128906 -17.246094 Z M 11.128906 -17.246094 "/></g></g></g><g fill="rgb(19.60907%, 21.179199%, 22.749329%)" fill-opacity="1"><g transform="translate(55.561702, 68.068133)"><g><path d="M 9.679688 -17.246094 C 4.097656 -17.246094 0.820312 -13.652344 0.820312 -8.417969 C 0.820312 -3.183594 4.097656 0.441406 9.679688 0.441406 C 15.230469 0.441406 18.539062 -3.183594 18.539062 -8.417969 C 18.539062 -13.652344 15.230469 -17.246094 9.679688 -17.246094 Z M 9.679688 -2.964844 C 7.316406 -2.964844 5.894531 -4.917969 5.894531 -8.417969 C 5.894531 -11.917969 7.316406 -13.839844 9.679688 -13.839844 C 12.011719 -13.839844 13.429688 -11.917969 13.429688 -8.417969 C 13.429688 -4.917969 12.011719 -2.964844 9.679688 -2.964844 Z M 9.679688 -2.964844 "/></g></g></g><g fill="rgb(19.60907%, 21.179199%, 22.749329%)" fill-opacity="1"><g transform="translate(73.31144, 68.068133)"><g><path d="M 8.101562 -6.433594 L 12.988281 0 L 19.136719 0 L 11.761719 -9.050781 L 19.042969 -16.804688 L 13.179688 -16.804688 L 6.808594 -9.425781 L 6.808594 -23.175781 L 1.859375 -23.175781 L 1.859375 0 L 6.808594 0 L 6.808594 -5.011719 Z M 8.101562 -6.433594 "/></g></g></g><g fill="rgb(19.60907%, 21.179199%, 22.749329%)" fill-opacity="1"><g transform="translate(90.808962, 68.068133)"><g><path d="M 4.320312 -23.300781 C 2.742188 -23.300781 1.703125 -22.324219 1.703125 -20.808594 C 1.703125 -19.265625 2.742188 -18.285156 4.320312 -18.285156 C 5.894531 -18.285156 6.96875 -19.265625 6.96875 -20.808594 C 6.96875 -22.324219 5.894531 -23.300781 4.320312 -23.300781 Z M 6.808594 0 L 6.808594 -16.804688 L 1.859375 -16.804688 L 1.859375 0 Z M 6.808594 0 "/></g></g></g><g fill="rgb(85.099792%, 85.099792%, 85.099792%)" fill-opacity="1"><g transform="translate(3.009763, 83.767321)"><g><path d="M 10.441406 0 L 13.570312 -9.320312 L 12.464844 -9.320312 L 9.933594 -1.238281 L 7.378906 -9.320312 L 6.3125 -9.308594 L 3.78125 -1.238281 L 1.226562 -9.320312 L 0.078125 -9.320312 L 3.195312 0 L 4.289062 0 L 6.832031 -7.855469 L 9.347656 0 Z M 10.441406 0 "/></g></g></g><g fill="rgb(85.099792%, 85.099792%, 85.099792%)" fill-opacity="1"><g transform="translate(16.547711, 83.767321)"><g><path d="M 4.035156 -7.042969 C 1.996094 -7.042969 0.558594 -5.59375 0.558594 -3.503906 C 0.558594 -1.410156 1.984375 0.0390625 4.046875 0.0390625 C 5.21875 0.0390625 6.207031 -0.386719 6.871094 -1.132812 L 6.300781 -1.746094 C 5.753906 -1.171875 4.992188 -0.867188 4.128906 -0.867188 C 2.769531 -0.867188 1.769531 -1.730469 1.585938 -3.101562 L 7.3125 -3.101562 C 7.417969 -5.488281 6.300781 -7.058594 4.035156 -7.042969 Z M 1.585938 -3.957031 C 1.746094 -5.285156 2.703125 -6.152344 4.035156 -6.152344 C 5.40625 -6.152344 6.3125 -5.300781 6.378906 -3.957031 Z M 1.585938 -3.957031 "/></g></g></g><g fill="rgb(85.099792%, 85.099792%, 85.099792%)" fill-opacity="1"><g transform="translate(24.374961, 83.767321)"><g><path d="M 5.074219 -7.058594 C 3.847656 -7.058594 2.890625 -6.484375 2.371094 -5.5 L 2.371094 -9.882812 L 1.332031 -9.882812 L 1.332031 0 L 2.371094 0 L 2.371094 -1.503906 C 2.890625 -0.53125 3.847656 0.0390625 5.101562 0.0390625 C 7.085938 0.0390625 8.441406 -1.410156 8.441406 -3.488281 C 8.441406 -5.59375 7.058594 -7.058594 5.074219 -7.058594 Z M 4.886719 -0.90625 C 3.410156 -0.90625 2.371094 -1.984375 2.371094 -3.515625 C 2.371094 -5.035156 3.410156 -6.125 4.886719 -6.125 C 6.351562 -6.125 7.390625 -5.019531 7.390625 -3.515625 C 7.390625 -1.996094 6.351562 -0.90625 4.886719 -0.90625 Z M 4.886719 -0.90625 "/></g></g></g><g fill="rgb(85.099792%, 85.099792%, 85.099792%)" fill-opacity="1"><g transform="translate(33.37364, 83.767321)"><g/></g></g><g fill="rgb(85.099792%, 85.099792%, 85.099792%)" fill-opacity="1"><g transform="translate(37.021028, 83.767321)"><g><path d="M 4.179688 -9.363281 C 2.25 -9.363281 0.957031 -8.417969 0.957031 -6.953125 C 0.957031 -3.609375 6.207031 -4.914062 6.191406 -2.464844 C 6.191406 -1.570312 5.355469 -1.027344 4.007812 -1.027344 C 2.957031 -1.027344 1.769531 -1.503906 0.90625 -2.34375 L 0.425781 -1.386719 C 1.304688 -0.546875 2.636719 0.0390625 3.996094 0.0390625 C 5.992188 0.0390625 7.363281 -0.957031 7.363281 -2.515625 C 7.378906 -5.898438 2.128906 -4.648438 2.128906 -7.042969 C 2.128906 -7.832031 2.917969 -8.285156 4.113281 -8.285156 C 4.859375 -8.285156 5.847656 -8.058594 6.683594 -7.496094 L 7.136719 -8.496094 C 6.367188 -9.015625 5.261719 -9.363281 4.179688 -9.363281 Z M 4.179688 -9.363281 "/></g></g></g><g fill="rgb(85.099792%, 85.099792%, 85.099792%)" fill-opacity="1"><g transform="translate(45.154455, 83.767321)"><g><path d="M 4.113281 -7.042969 C 2.039062 -7.042969 0.558594 -5.605469 0.558594 -3.515625 C 0.558594 -1.410156 2.039062 0.0390625 4.113281 0.0390625 C 6.191406 0.0390625 7.671875 -1.410156 7.671875 -3.515625 C 7.671875 -5.605469 6.191406 -7.042969 4.113281 -7.042969 Z M 4.113281 -6.097656 C 5.578125 -6.097656 6.632812 -5.035156 6.632812 -3.503906 C 6.632812 -1.957031 5.578125 -0.890625 4.113281 -0.890625 C 2.648438 -0.890625 1.597656 -1.957031 1.597656 -3.503906 C 1.597656 -5.035156 2.648438 -6.097656 4.113281 -6.097656 Z M 4.113281 -6.097656 "/></g></g></g><g fill="rgb(85.099792%, 85.099792%, 85.099792%)" fill-opacity="1"><g transform="translate(53.381056, 83.767321)"><g><path d="M 2.371094 0 L 2.371094 -9.882812 L 1.332031 -9.882812 L 1.332031 0 Z M 2.371094 0 "/></g></g></g><g fill="rgb(85.099792%, 85.099792%, 85.099792%)" fill-opacity="1"><g transform="translate(57.081698, 83.767321)"><g><path d="M 7.351562 -7.019531 L 6.3125 -7.019531 L 6.3125 -3.570312 C 6.3125 -2.078125 5.460938 -1.027344 4.007812 -1 C 2.796875 -1 2.0625 -1.730469 2.0625 -2.96875 L 2.0625 -7.019531 L 1.027344 -7.019531 L 1.027344 -2.691406 C 1.027344 -1 2.011719 0.0390625 3.648438 0.0390625 C 4.914062 0.0273438 5.847656 -0.492188 6.3125 -1.585938 L 6.3125 0 L 7.351562 0 Z M 7.351562 -7.019531 "/></g></g></g><g fill="rgb(85.099792%, 85.099792%, 85.099792%)" fill-opacity="1"><g transform="translate(65.694344, 83.767321)"><g><path d="M 4.59375 -1.320312 C 4.207031 -1.078125 3.835938 -0.957031 3.476562 -0.957031 C 2.875 -0.957031 2.542969 -1.277344 2.542969 -2.128906 L 2.542969 -5.953125 L 4.769531 -5.953125 L 4.769531 -6.804688 L 2.542969 -6.792969 L 2.542969 -8.644531 L 1.519531 -8.644531 L 1.519531 -6.792969 L 0.507812 -6.792969 L 0.507812 -5.953125 L 1.519531 -5.953125 L 1.519531 -1.945312 C 1.519531 -0.558594 2.277344 0.0546875 3.300781 0.0546875 C 3.863281 0.0390625 4.394531 -0.148438 4.886719 -0.480469 Z M 4.59375 -1.320312 "/></g></g></g><g fill="rgb(85.099792%, 85.099792%, 85.099792%)" fill-opacity="1"><g transform="translate(70.885888, 83.767321)"><g><path d="M 1.769531 -9.75 C 1.386719 -9.75 1.09375 -9.441406 1.09375 -9.027344 C 1.09375 -8.617188 1.386719 -8.308594 1.769531 -8.308594 C 2.15625 -8.308594 2.449219 -8.617188 2.449219 -9.027344 C 2.449219 -9.441406 2.15625 -9.75 1.769531 -9.75 Z M 2.289062 0 L 2.289062 -7.019531 L 1.265625 -7.019531 L 1.265625 0 Z M 2.289062 0 "/></g></g></g><g fill="rgb(85.099792%, 85.099792%, 85.099792%)" fill-opacity="1"><g transform="translate(74.4401, 83.767321)"><g><path d="M 4.113281 -7.042969 C 2.039062 -7.042969 0.558594 -5.605469 0.558594 -3.515625 C 0.558594 -1.410156 2.039062 0.0390625 4.113281 0.0390625 C 6.191406 0.0390625 7.671875 -1.410156 7.671875 -3.515625 C 7.671875 -5.605469 6.191406 -7.042969 4.113281 -7.042969 Z M 4.113281 -6.097656 C 5.578125 -6.097656 6.632812 -5.035156 6.632812 -3.503906 C 6.632812 -1.957031 5.578125 -0.890625 4.113281 -0.890625 C 2.648438 -0.890625 1.597656 -1.957031 1.597656 -3.503906 C 1.597656 -5.035156 2.648438 -6.097656 4.113281 -6.097656 Z M 4.113281 -6.097656 "/></g></g></g><g fill="rgb(85.099792%, 85.099792%, 85.099792%)" fill-opacity="1"><g transform="translate(82.666702, 83.767321)"><g><path d="M 5.019531 -7.058594 C 3.742188 -7.042969 2.796875 -6.539062 2.304688 -5.472656 L 2.304688 -7.019531 L 1.265625 -7.019531 L 1.265625 0 L 2.304688 0 L 2.304688 -3.769531 C 2.421875 -5.101562 3.277344 -6.007812 4.660156 -6.019531 C 5.898438 -6.019531 6.644531 -5.285156 6.644531 -4.046875 L 6.644531 0 L 7.683594 0 L 7.683594 -4.328125 C 7.683594 -6.019531 6.699219 -7.058594 5.019531 -7.058594 Z M 5.019531 -7.058594 "/></g></g></g><g fill="rgb(85.099792%, 85.099792%, 85.099792%)" fill-opacity="1"><g transform="translate(91.399151, 83.767321)"><g><path d="M 3.128906 -7.058594 C 1.851562 -7.058594 0.691406 -6.5 0.691406 -5.152344 C 0.679688 -2.664062 4.609375 -3.527344 4.566406 -1.835938 C 4.554688 -1.144531 3.886719 -0.839844 3.0625 -0.839844 C 2.238281 -0.839844 1.332031 -1.171875 0.734375 -1.730469 L 0.332031 -0.945312 C 1 -0.304688 2.023438 0.0390625 3.023438 0.0390625 C 4.367188 0.0390625 5.59375 -0.574219 5.59375 -1.957031 C 5.59375 -4.472656 1.679688 -3.675781 1.679688 -5.234375 C 1.679688 -5.886719 2.277344 -6.164062 3.0625 -6.164062 C 3.714844 -6.164062 4.421875 -5.941406 4.96875 -5.59375 L 5.367188 -6.417969 C 4.78125 -6.820312 3.96875 -7.058594 3.128906 -7.058594 Z M 3.128906 -7.058594 "/></g></g></g><path fill="rgb(35.688782%, 48.629761%, 100%)" d="M 204.671875 46.363281 L 186.484375 28.265625 C 185.992188 27.777344 185.320312 27.5 184.625 27.5 L 169.746094 27.5 C 168.683594 27.5 167.726562 28.136719 167.320312 29.113281 C 166.914062 30.09375 167.136719 31.21875 167.886719 31.96875 L 184.21875 48.214844 L 167.886719 64.464844 C 167.136719 65.210938 166.910156 66.335938 167.320312 67.3125 C 167.726562 68.289062 168.683594 68.929688 169.746094 68.929688 L 184.625 68.929688 C 185.320312 68.929688 185.992188 68.652344 186.484375 68.160156 L 204.671875 50.0625 C 205.167969 49.574219 205.441406 48.910156 205.441406 48.214844 C 205.441406 47.519531 205.164062 46.855469 204.671875 46.363281 Z M 204.671875 46.363281 " fill-opacity="1" fill-rule="nonzero"/><path fill="rgb(35.688782%, 48.629761%, 100%)" d="M 191.011719 50.0625 C 191.503906 49.574219 191.78125 48.910156 191.78125 48.214844 C 191.78125 47.519531 191.503906 46.855469 191.011719 46.363281 L 172.824219 28.265625 C 172.328125 27.777344 171.660156 27.5 170.960938 27.5 L 169.746094 27.5 C 168.683594 27.5 167.726562 28.136719 167.320312 29.113281 C 166.914062 30.09375 167.136719 31.21875 167.886719 31.96875 L 184.21875 48.214844 L 167.886719 64.464844 C 167.136719 65.210938 166.910156 66.335938 167.320312 67.3125 C 167.726562 68.289062 168.683594 68.929688 169.746094 68.929688 L 170.960938 68.929688 C 171.660156 68.929688 172.328125 68.652344 172.824219 68.160156 Z M 191.011719 50.0625 " fill-opacity="1" fill-rule="nonzero"/><path fill="rgb(85.099792%, 85.099792%, 85.099792%)" d="M 145.621094 29.113281 C 145.214844 28.136719 144.253906 27.5 143.191406 27.5 L 128.316406 27.5 C 127.617188 27.5 126.949219 27.777344 126.457031 28.265625 L 108.265625 46.363281 C 107.773438 46.855469 107.496094 47.519531 107.496094 48.214844 C 107.496094 48.910156 107.773438 49.574219 108.265625 50.0625 L 126.457031 68.160156 C 126.949219 68.652344 127.617188 68.929688 128.316406 68.929688 L 143.191406 68.929688 C 144.253906 68.929688 145.214844 68.289062 145.621094 67.3125 C 146.027344 66.335938 145.800781 65.210938 145.050781 64.464844 L 128.722656 48.214844 L 145.050781 31.96875 C 145.800781 31.21875 146.027344 30.09375 145.621094 29.113281 Z M 145.621094 29.113281 " fill-opacity="1" fill-rule="nonzero"/><path fill="rgb(85.099792%, 85.099792%, 85.099792%)" d="M 145.621094 67.3125 C 146.027344 66.335938 145.800781 65.210938 145.050781 64.464844 L 128.722656 48.214844 L 145.050781 31.96875 C 145.804688 31.21875 146.027344 30.09375 145.621094 29.113281 C 145.214844 28.136719 144.253906 27.5 143.191406 27.5 L 141.976562 27.5 C 141.28125 27.5 140.609375 27.777344 140.117188 28.265625 L 121.929688 46.363281 C 121.433594 46.855469 121.15625 47.519531 121.15625 48.214844 C 121.15625 48.910156 121.433594 49.574219 121.929688 50.0625 L 140.117188 68.160156 C 140.609375 68.652344 141.28125 68.929688 141.976562 68.929688 L 143.191406 68.929688 C 144.253906 68.929688 145.214844 68.289062 145.621094 67.3125 Z M 145.621094 67.3125 " fill-opacity="1" fill-rule="nonzero"/><g clip-path="url(#id1)"><path stroke-linecap="round" transform="matrix(0.780657, 0, 0, 0.776732, 104.26542, -4.214832)" fill="none" stroke-linejoin="round" d="M 129.878853 65.116588 L 106.581167 41.816833 C 105.945685 41.188198 105.090036 40.831133 104.199359 40.831133 L 85.139891 40.831133 C 83.778858 40.831133 82.552928 41.650874 82.027529 42.908145 C 81.507134 44.170446 81.797354 45.618822 82.758083 46.584407 L 103.678964 67.500375 L 82.758083 88.421372 C 81.797354 89.381928 81.507134 90.830304 82.027529 92.087576 C 82.552928 93.344847 83.778858 94.169617 85.139891 94.169617 L 104.199359 94.169617 C 105.090036 94.169617 105.945685 93.812552 106.581167 93.178888 L 129.878853 69.879133 C 130.509331 69.250497 130.864601 68.395552 130.864601 67.500375 C 130.864601 66.605198 130.509331 65.750253 129.878853 65.116588 Z M 129.878853 65.116588 " stroke="rgb(19.999695%, 21.179199%, 22.749329%)" stroke-width="3" stroke-opacity="1" stroke-miterlimit="10"/></g><path stroke-linecap="round" transform="matrix(0.780657, 0, 0, 0.776732, 104.26542, -4.214832)" fill="none" stroke-linejoin="round" d="M 108.667751 62.501464 L 87.751874 83.417432 " stroke="rgb(19.999695%, 21.179199%, 22.749329%)" stroke-width="3" stroke-opacity="1" stroke-miterlimit="10"/><g clip-path="url(#id2)"><path stroke-linecap="round" transform="matrix(0.780657, 0, 0, 0.776732, 104.26542, -4.214832)" fill="none" stroke-linejoin="round" d="M 52.975475 42.908145 C 52.45508 41.650874 51.224146 40.831133 49.863113 40.831133 L 30.808649 40.831133 C 29.912969 40.831133 29.057319 41.188198 28.426841 41.816833 L 5.124152 65.116588 C 4.493673 65.750253 4.138403 66.605198 4.138403 67.500375 C 4.138403 68.395552 4.493673 69.250497 5.124152 69.879133 L 28.426841 93.178888 C 29.057319 93.812552 29.912969 94.169617 30.808649 94.169617 L 49.863113 94.169617 C 51.224146 94.169617 52.45508 93.344847 52.975475 92.087576 C 53.49587 90.830304 53.20565 89.381928 52.244921 88.421372 L 31.329044 67.500375 L 52.244921 46.584407 C 53.20565 45.618822 53.49587 44.170446 52.975475 42.908145 Z M 52.975475 42.908145 " stroke="rgb(19.999695%, 21.179199%, 22.749329%)" stroke-width="3" stroke-opacity="1" stroke-miterlimit="10"/></g><path stroke-linecap="round" transform="matrix(0.780657, 0, 0, 0.776732, 104.26542, -4.214832)" fill="none" stroke-linejoin="round" d="M 26.330249 72.499286 L 47.246126 51.583318 " stroke="rgb(19.999695%, 21.179199%, 22.749329%)" stroke-width="3" stroke-opacity="1" stroke-miterlimit="10"/><path stroke-linecap="round" transform="matrix(0.780657, 0, 0, 0.776732, 104.26542, -4.214832)" fill="none" stroke-linejoin="round" d="M 57.03856 77.960874 L 77.959441 57.039876 " stroke="rgb(19.999695%, 21.179199%, 22.749329%)" stroke-width="3" stroke-opacity="1" stroke-miterlimit="10"/><path stroke-linecap="round" transform="matrix(0.780657, 0, 0, 0.776732, 104.26542, -4.214832)" fill="none" stroke-linejoin="round" d="M 101.402236 33.599307 L 103.789048 31.210491 " stroke="rgb(19.999695%, 21.179199%, 22.749329%)" stroke-width="3" stroke-opacity="1" stroke-miterlimit="10"/><path stroke-linecap="round" transform="matrix(0.780657, 0, 0, 0.776732, 104.26542, -4.214832)" fill="none" stroke-linejoin="round" d="M 108.192391 26.810041 L 108.437577 26.563616 " stroke="rgb(19.999695%, 21.179199%, 22.749329%)" stroke-width="3" stroke-opacity="1" stroke-miterlimit="10"/><path stroke-linecap="round" transform="matrix(0.780657, 0, 0, 0.776732, 104.26542, -4.214832)" fill="none" stroke-linejoin="round" d="M 111.680038 23.319856 L 111.930228 23.07343 " stroke="rgb(19.999695%, 21.179199%, 22.749329%)" stroke-width="3" stroke-opacity="1" stroke-miterlimit="10"/><g clip-path="url(#id3)"><path stroke-linecap="round" transform="matrix(0.780657, 0, 0, 0.776732, 104.26542, -4.214832)" fill="none" stroke-linejoin="round" d="M 115.167686 19.834699 L 115.417875 19.583245 " stroke="rgb(19.999695%, 21.179199%, 22.749329%)" stroke-width="3" stroke-opacity="1" stroke-miterlimit="10"/></g><path stroke-linecap="round" transform="matrix(0.780657, 0, 0, 0.776732, 104.26542, -4.214832)" fill="none" stroke-linejoin="round" d="M 33.600768 101.401443 L 31.208953 103.790259 " stroke="rgb(19.999695%, 21.179199%, 22.749329%)" stroke-width="3" stroke-opacity="1" stroke-miterlimit="10"/><path stroke-linecap="round" transform="matrix(0.780657, 0, 0, 0.776732, 104.26542, -4.214832)" fill="none" stroke-linejoin="round" d="M 26.810614 108.190709 L 26.560424 108.442163 " stroke="rgb(19.999695%, 21.179199%, 22.749329%)" stroke-width="3" stroke-opacity="1" stroke-miterlimit="10"/><path stroke-linecap="round" transform="matrix(0.780657, 0, 0, 0.776732, 104.26542, -4.214832)" fill="none" stroke-linejoin="round" d="M 23.317962 111.680895 L 23.072776 111.932349 " stroke="rgb(19.999695%, 21.179199%, 22.749329%)" stroke-width="3" stroke-opacity="1" stroke-miterlimit="10"/><g clip-path="url(#id4)"><path stroke-linecap="round" transform="matrix(0.780657, 0, 0, 0.776732, 104.26542, -4.214832)" fill="none" stroke-linejoin="round" d="M 19.830315 115.17108 L 19.585129 115.417505 " stroke="rgb(19.999695%, 21.179199%, 22.749329%)" stroke-width="3" stroke-opacity="1" stroke-miterlimit="10"/></g></svg>